<svg width="28" height="34" viewBox="0 0 28 34" fill="none" xmlns="http://www.w3.org/2000/svg">
<path d="M9.01996 30.0696H10.52V28.5696V25.2682V23.7682H9.01996H5.69459H4.19459V25.2682V28.5696V30.0696H5.69459H9.01996ZM9.01996 23.4667H10.52V21.9667V18.6653V17.1653H9.01996H5.69459H4.19459V18.6653V21.9667V23.4667H5.69459H9.01996ZM9.01996 16.8638H10.52V15.3638V12.0624V10.5624H9.01996H5.69459H4.19459V12.0624V15.3638V16.8638H5.69459H9.01996ZM15.6707 30.0696H17.1707V28.5696V25.2682V23.7682H15.6707H12.3453H10.8453V25.2682V28.5696V30.0696H12.3453H15.6707ZM15.6707 23.4667H17.1707V21.9667V18.6653V17.1653H15.6707H12.3453H10.8453V18.6653V21.9667V23.4667H12.3453H15.6707ZM15.6707 16.8638H17.1707V15.3638V12.0624V10.5624H15.6707H12.3453H10.8453V12.0624V15.3638V16.8638H12.3453H15.6707ZM22.3214 30.0696H23.8214V28.5696V18.6653V17.1653H22.3214H18.9961H17.4961V18.6653V28.5696V30.0696H18.9961H22.3214ZM22.3214 16.8638H23.8214V15.3638V12.0624V10.5624H22.3214H18.9961H17.4961V12.0624V15.3638V16.8638H18.9961H22.3214ZM4.03191 2.30877H3.02109C3.31767 2.11412 3.66865 2.00732 4.03191 2.00732H23.9841C24.3474 2.00732 24.6984 2.11412 24.9949 2.30877H23.9841H4.03191ZM2.53191 2.78223V3.80877V8.76095V10.2609H4.03191H23.9841H25.4841V8.76095V3.80877V2.78223C25.6951 3.08243 25.8095 3.44041 25.8095 3.80877V30.2204C25.8095 30.6946 25.6198 31.1517 25.2787 31.4904C24.9372 31.8294 24.4717 32.0218 23.9841 32.0218H4.03191C3.54431 32.0218 3.07885 31.8294 2.73734 31.4904C2.39621 31.1517 2.20654 30.6946 2.20654 30.2204V3.80877C2.20654 3.44041 2.32096 3.08243 2.53191 2.78223Z" fill="white" stroke="white" stroke-width="3"/>
</svg>
